<svg version="1.1" id="Layer_1" xmlns="http://www.w3.org/2000/svg" xmlns:xlink="http://www.w3.org/1999/xlink" x="0px" y="0px"
	 width="100%" viewBox="0 0 140 140" enable-background="new 0 0 140 140" xml:space="preserve">
<path fill="transparent" opacity="1.000000" stroke="none" 
	d="
M48.000000,141.000000 
	C32.359531,141.000000 16.719067,141.000000 1.039300,141.000000 
	C1.039300,94.437607 1.039300,47.875164 1.039300,1.000000 
	C25.686680,1.000000 50.374683,1.000000 75.916801,1.203891 
	C73.172279,4.005022 69.595161,6.632752 65.969849,9.192211 
	C60.779339,12.856696 55.553619,16.471306 49.840443,20.457838 
	C58.246758,25.489172 65.746925,29.978159 73.969055,34.899254 
	C73.631348,31.818665 73.401466,29.721613 73.111496,27.076477 
	C74.937569,27.076477 76.554253,26.944984 78.143936,27.096626 
	C95.877693,28.788277 109.877220,43.444416 110.846031,61.232227 
	C111.330040,70.118668 109.285561,78.385536 105.199257,86.258888 
	C104.600449,87.412651 104.438507,89.709007 105.149986,90.466560 
	C108.051888,93.556419 111.371758,96.253746 114.735298,99.273125 
	C122.626701,88.238174 125.631889,76.349358 126.144760,63.197395 
	C130.313812,63.197395 134.048874,63.197395 138.142120,63.197395 
	C138.081757,50.139294 133.912537,39.135040 126.175201,29.578737 
	C113.455475,13.868711 96.489525,7.250772 76.201065,7.714017 
	C76.876068,5.194764 77.438034,3.097382 78.000000,1.000000 
	C98.967491,1.000000 119.934975,1.000000 140.951233,1.000000 
	C140.951233,47.561871 140.951233,94.123810 140.951233,141.000000 
	C114.646606,141.000000 88.291962,141.000000 61.365547,140.527374 
	C60.862656,138.117706 60.931541,136.180649 61.445885,134.287231 
	C84.015373,138.047455 105.973915,137.825104 128.069397,131.650558 
	C133.117142,132.378479 134.502975,128.611694 136.991745,125.667458 
	C135.041809,123.565567 133.387985,121.486549 131.440704,119.733513 
	C121.303154,110.607277 111.202942,101.433327 100.848076,92.557915 
	C96.853104,89.133720 96.042557,86.356445 98.610062,81.268608 
	C106.213242,66.201897 103.755241,49.763550 93.273972,39.665909 
	C89.466698,35.997990 88.705276,36.185673 86.849487,40.877125 
	C89.148987,43.994823 91.671425,46.720062 93.400749,49.879425 
	C100.995125,63.753830 94.964272,84.393532 80.448860,94.342812 
	C71.600906,100.407463 62.062569,103.216385 51.754391,98.304947 
	C35.532967,90.576065 35.450928,69.908012 42.092407,57.845997 
	C42.395576,57.295387 42.990108,56.529625 43.471573,56.512825 
	C46.984127,56.390293 46.623547,53.628670 46.876625,51.480412 
	C47.128445,49.342918 46.968456,47.156906 47.072655,44.957626 
	C47.156277,44.923080 47.159843,44.708656 47.159843,44.708656 
	C47.159843,44.708656 47.009388,45.012444 46.636658,44.996990 
	C42.716557,46.695759 39.169189,48.409977 36.802715,49.553547 
	C36.274376,52.819542 35.966007,54.902695 35.596863,56.975021 
	C34.414875,63.610550 32.245022,70.235077 32.196941,76.876450 
	C32.056999,96.206818 49.313934,110.222572 68.173668,105.975136 
	C74.441818,104.563461 80.121735,100.595901 86.128090,97.926208 
	C87.626083,97.260391 90.145630,96.212669 90.841232,96.840675 
	C97.092712,102.484619 103.041779,108.463516 108.626373,114.363815 
	C106.084999,114.187012 103.996925,113.990417 101.841354,113.476273 
	C98.205170,109.742287 94.636497,106.325844 91.028870,102.872108 
	C76.853165,112.342651 62.110809,116.544563 46.205879,109.963257 
	C29.842270,103.192146 23.348087,89.699585 23.492207,72.191475 
	C16.745848,73.234344 10.589989,74.185936 3.130769,75.339005 
	C4.221577,83.906326 4.276213,92.183273 6.447699,99.861565 
	C12.081934,119.783966 25.519081,132.527786 45.219753,138.776733 
	C46.275364,139.111572 47.079044,140.240646 48.000000,141.000000 
M61.077724,84.134460 
	C61.995346,85.374886 62.912964,86.615311 63.830585,87.855736 
	C64.556068,86.587219 65.605080,85.393959 65.922249,84.030457 
	C66.289307,82.452454 66.197990,80.699928 65.980164,79.066589 
	C65.344330,74.298744 67.191109,72.537720 72.065994,72.835838 
	C77.095940,73.143433 81.689308,71.681313 84.121948,66.607391 
	C88.199196,58.103203 82.767593,49.190628 73.395096,48.973160 
	C70.902229,48.915314 68.392464,49.127529 65.916321,48.914780 
	C62.214024,48.596687 60.942112,50.101406 61.010017,53.784374 
	C61.190838,63.591335 61.071491,73.403831 61.077724,84.134460 
z"/>
<path fill="#EF911B" opacity="1.000000" stroke="none" 
	d="
M77.666672,1.000000 
	C77.438034,3.097382 76.876068,5.194764 76.201065,7.714017 
	C96.489525,7.250772 113.455475,13.868711 126.175201,29.578737 
	C133.912537,39.135040 138.081757,50.139294 138.142120,63.197395 
	C134.048874,63.197395 130.313812,63.197395 126.144760,63.197395 
	C125.631889,76.349358 122.626701,88.238174 114.735298,99.273125 
	C111.371758,96.253746 108.051888,93.556419 105.149986,90.466560 
	C104.438507,89.709007 104.600449,87.412651 105.199257,86.258888 
	C109.285561,78.385536 111.330040,70.118668 110.846031,61.232227 
	C109.877220,43.444416 95.877693,28.788277 78.143936,27.096626 
	C76.554253,26.944984 74.937569,27.076477 73.111496,27.076477 
	C73.401466,29.721613 73.631348,31.818665 73.969055,34.899254 
	C65.746925,29.978159 58.246758,25.489172 49.840443,20.457838 
	C55.553619,16.471306 60.779339,12.856696 65.969849,9.192211 
	C69.595161,6.632752 73.172279,4.005022 76.385460,1.203891 
	C76.444443,1.000000 76.888893,1.000000 77.666672,1.000000 
z"/>
<path fill="#F1921C" opacity="1.000000" stroke="none" 
	d="
M61.000427,134.243607 
	C60.931541,136.180649 60.862656,138.117706 60.896889,140.527374 
	C56.975456,141.000000 52.950912,141.000000 48.463181,141.000000 
	C47.079044,140.240646 46.275364,139.111572 45.219753,138.776733 
	C25.519081,132.527786 12.081934,119.783966 6.447699,99.861565 
	C4.276213,92.183273 4.221577,83.906326 3.130769,75.339005 
	C10.589989,74.185936 16.745848,73.234344 23.492207,72.191475 
	C23.348087,89.699585 29.842270,103.192146 46.205879,109.963257 
	C62.110809,116.544563 76.853165,112.342651 91.028870,102.872108 
	C94.636497,106.325844 98.205170,109.742287 101.538345,113.635834 
	C89.404297,123.075653 76.003471,127.954475 61.000427,128.313904 
	C61.000427,130.669296 61.000427,132.456451 61.000427,134.243607 
z"/>
<path fill="#012944" opacity="1.000000" stroke="none" 
	d="
M46.989037,44.992168 
	C46.968456,47.156906 47.128445,49.342918 46.876625,51.480412 
	C46.623547,53.628670 46.984127,56.390293 43.471573,56.512825 
	C42.990108,56.529625 42.395576,57.295387 42.092407,57.845997 
	C35.450928,69.908012 35.532967,90.576065 51.754391,98.304947 
	C62.062569,103.216385 71.600906,100.407463 80.448860,94.342812 
	C94.964272,84.393532 100.995125,63.753830 93.400749,49.879425 
	C91.671425,46.720062 89.148987,43.994823 86.849487,40.877125 
	C88.705276,36.185673 89.466698,35.997990 93.273972,39.665909 
	C103.755241,49.763550 106.213242,66.201897 98.610062,81.268608 
	C96.042557,86.356445 96.853104,89.133720 100.848076,92.557915 
	C111.202942,101.433327 121.303154,110.607277 131.440704,119.733513 
	C133.387985,121.486549 135.041809,123.565567 136.991745,125.667458 
	C134.502975,128.611694 133.117142,132.378479 128.162628,131.335999 
	C121.603439,125.406548 115.341553,119.875290 109.079666,114.344025 
	C103.041779,108.463516 97.092712,102.484619 90.841232,96.840675 
	C90.145630,96.212669 87.626083,97.260391 86.128090,97.926208 
	C80.121735,100.595901 74.441818,104.563461 68.173668,105.975136 
	C49.313934,110.222572 32.056999,96.206818 32.196941,76.876450 
	C32.245022,70.235077 34.414875,63.610550 35.596863,56.975021 
	C35.966007,54.902695 36.274376,52.819542 36.802715,49.553547 
	C39.169189,48.409977 42.716557,46.695759 46.632118,44.991020 
	C47.000309,45.000504 46.989037,44.992168 46.989037,44.992168 
z"/>
<path fill="#E2E1E0" opacity="1.000000" stroke="none" 
	d="
M108.626373,114.363815 
	C115.341553,119.875290 121.603439,125.406548 127.772095,131.252350 
	C105.973915,137.825104 84.015373,138.047455 61.445885,134.287231 
	C61.000427,132.456451 61.000427,130.669296 61.000427,128.313904 
	C76.003471,127.954475 89.404297,123.075653 101.605850,113.953384 
	C103.996925,113.990417 106.084999,114.187012 108.626373,114.363815 
z"/>
<path fill="#002941" opacity="1.000000" stroke="none" 
	d="
M61.074608,83.674294 
	C61.071491,73.403831 61.190838,63.591335 61.010017,53.784374 
	C60.942112,50.101406 62.214024,48.596687 65.916321,48.914780 
	C68.392464,49.127529 70.902229,48.915314 73.395096,48.973160 
	C82.767593,49.190628 88.199196,58.103203 84.121948,66.607391 
	C81.689308,71.681313 77.095940,73.143433 72.065994,72.835838 
	C67.191109,72.537720 65.344330,74.298744 65.980164,79.066589 
	C66.197990,80.699928 66.289307,82.452454 65.922249,84.030457 
	C65.605080,85.393959 64.556068,86.587219 63.830582,87.855736 
	C62.912964,86.615311 61.995346,85.374886 61.074608,83.674294 
M72.308662,68.094345 
	C78.350784,67.685501 80.324554,65.691246 80.058464,60.264141 
	C79.798676,54.965477 77.239975,53.253876 70.907837,52.965855 
	C64.097221,52.656063 66.443329,57.475323 66.022797,60.813801 
	C65.940277,61.468987 66.086693,62.153515 65.999924,62.807579 
	C65.442444,67.009521 67.355110,68.645348 72.308662,68.094345 
z"/>
<path fill="#012944" opacity="1.000000" stroke="none" 
	d="
M47.004848,45.006474 
	C47.009388,45.012444 47.159843,44.708656 47.159843,44.708656 
	C47.159843,44.708656 47.156277,44.923080 47.072655,44.957626 
	C46.989037,44.992168 47.000309,45.000504 47.004848,45.006474 
z"/>
<path fill="transparent" opacity="1.000000" stroke="none" 
	d="
M71.863113,68.095726 
	C67.355110,68.645348 65.442444,67.009521 65.999924,62.807579 
	C66.086693,62.153515 65.940277,61.468987 66.022797,60.813801 
	C66.443329,57.475323 64.097221,52.656063 70.907837,52.965855 
	C77.239975,53.253876 79.798676,54.965477 80.058464,60.264141 
	C80.324554,65.691246 78.350784,67.685501 71.863113,68.095726 
z"/>
</svg>